<!-- Generated by IcoMoon.io -->
<svg version="1.1" xmlns="http://www.w3.org/2000/svg" width="1024" height="1024" viewBox="0 0 1024 1024">
<title></title>
<g id="icomoon-ignore">
</g>
<path d="M41.891 481.466h796.858l-173.149-175.663c-8.165-7.28-13.282-17.829-13.282-29.573 0-21.85 17.713-39.564 39.564-39.564 11.744 0 22.293 5.117 29.539 13.243l0.034 0.039 244.829 244.364c4.201 3.24 7.417 7.566 9.247 12.56l0.062 0.194c1.797 3.946 2.845 8.557 2.845 13.414 0 0.652-0.019 1.299-0.056 1.942l0.004-0.089c0.038 0.585 0.059 1.268 0.059 1.957 0 4.822-1.050 9.398-2.935 13.513l0.083-0.203c-1.82 5.221-5.052 9.565-9.24 12.704l-0.069 0.050-244.829 244.364c-6.954 6.201-16.175 9.991-26.282 9.991-21.85 0-39.564-17.713-39.564-39.564 0-10.106 3.789-19.328 10.025-26.321l-0.034 0.039 173.149-175.569h-796.858c-0.581 0.030-1.263 0.047-1.948 0.047-22.519 0-40.774-18.255-40.774-40.774s18.255-40.774 40.774-40.774c0.685 0 1.366 0.017 2.043 0.050l-0.095-0.004z"></path>
</svg>
