<?xml version="1.0" standalone="no"?>
<!DOCTYPE svg PUBLIC "-//W3C//DTD SVG 20010904//EN"
 "http://www.w3.org/TR/2001/REC-SVG-20010904/DTD/svg10.dtd">
<svg version="1.0" xmlns="http://www.w3.org/2000/svg"
 width="128.000000pt" height="128.000000pt" viewBox="0 0 128.000000 128.000000"
 preserveAspectRatio="xMidYMid meet">

<g transform="translate(0.000000,128.000000) scale(0.100000,-0.100000)"
fill="#000000" stroke="none">
<path d="M505 1256 c-302 -69 -509 -343 -492 -652 9 -159 70 -295 183 -408 72
-72 145 -117 246 -154 64 -23 88 -26 198 -26 110 0 134 3 198 26 101 37 174
82 246 154 72 72 117 145 154 246 23 64 26 88 26 198 0 110 -3 134 -26 198
-37 101 -82 174 -154 246 -117 117 -253 176 -419 182 -62 2 -123 -1 -160 -10z
m413 -306 c57 -35 62 -62 62 -320 0 -258 -5 -285 -62 -320 -31 -19 -50 -20
-281 -20 -275 0 -286 2 -323 64 -17 28 -19 54 -19 271 0 265 4 290 59 325 29
18 48 20 281 20 233 0 252 -1 283 -20z"/>
<path d="M780 835 l0 -55 60 0 60 0 0 55 0 55 -60 0 -60 0 0 -55z"/>
<path d="M578 735 c-15 -9 -35 -29 -43 -45 -46 -90 20 -190 118 -177 100 14
137 136 62 207 -30 29 -100 36 -137 15z"/>
<path d="M360 551 c0 -212 -22 -196 273 -196 300 0 277 -16 277 192 l0 153
-47 0 -48 0 3 -60 c3 -48 -1 -67 -20 -101 -39 -70 -131 -110 -207 -89 -88 24
-150 115 -138 205 l7 45 -50 0 -50 0 0 -149z"/>
</g>
</svg>
